<svg viewBox="0 0 784 100" fill="currentColor" role="img" aria-label="XFINE" height="22"><polygon points="0,0 30,0 124,100 94,100"></polygon><polygon points="94,0 124,0 30,100 0,100"></polygon><rect x="208" y="0" width="19" height="100"></rect><rect x="208" y="0" width="95" height="19"></rect><rect x="208" y="40.5" width="62" height="19"></rect><rect x="390" y="0" width="19" height="100"></rect><rect x="503" y="0" width="19" height="100"></rect><rect x="579" y="0" width="19" height="100"></rect><polygon points="503,0 527,0 598,100 574,100"></polygon><rect x="688" y="0" width="19" height="100"></rect><rect x="688" y="0" width="95" height="19"></rect><rect x="688" y="40.5" width="95" height="19"></rect><rect x="688" y="81" width="95" height="19"></rect></svg>